<?xml version="1.0" encoding="UTF-8"?>
<svg width="193.5" height="193.44" preserveAspectRatio="xMidYMid" version="1.0" viewBox="0 0 145.12 145.08" xmlns="http://www.w3.org/2000/svg" zoomAndPan="magnify">
 <defs>
  <clipPath id="45bb2661a7">
   <path d="m114.94 93.863h145.12v145.08h-145.12z"/>
  </clipPath>
  <clipPath id="7421c06740">
   <path d="m132.19 93.863h110.62c4.5742 0 8.9609 1.8164 12.199 5.0508 3.2344 3.2383 5.0508 7.625 5.0508 12.199v110.58c0 4.5742-1.8164 8.9648-5.0508 12.199-3.2383 3.2344-7.625 5.0508-12.199 5.0508h-110.62c-4.5742 0-8.9609-1.8164-12.199-5.0508-3.2344-3.2344-5.0508-7.625-5.0508-12.199v-110.58c0-4.5742 1.8164-8.9609 5.0508-12.199 3.2383-3.2344 7.625-5.0508 12.199-5.0508"/>
  </clipPath>
  <clipPath id="555249f331">
   <path d="m142.45 101.56h89.715v33.922h-89.715z"/>
  </clipPath>
  <clipPath id="fca07b77aa">
   <path d="m155 123.8h5.9492v34.012h-5.9492z"/>
  </clipPath>
 </defs>
 <path d="m29.027 119.03 1.6484 1.6211 0.16406 0.16406c5.125 5.2852 5.0703 13.793-0.16406 19.004-5.2383 5.207-13.785 5.2617-19.094 0.16406l-0.16406-0.16406-1.6484-1.625-4.4844-4.4805c-5.293-5.2656-5.293-13.883 0-19.164 5.2891-5.2656 13.965-5.2656 19.258 0zm90.832-74.152 1.5938-1.5859 1.832-1.8203 16.785-16.707c5.293-5.2656 5.293-13.883 0-19.168-5.3086-5.2656-13.965-5.2656-19.258 0l-16.785 16.707-1.832 1.8242-11.223 11.168c-5.2891 5.2656-5.2891 13.883 0 19.164l9.6289 9.5859 1.7227 1.6914 18.617 18.531c5.2891 5.2656 13.949 5.2656 19.258 0 5.2891-5.2656 5.2891-13.902 0-19.168l-18.617-18.527zm-113.8-39.152v-0.01953c5.2891-5.2656 13.965-5.2656 19.258 0l114.63 114.11c5.3086 5.2656 5.3086 13.902 0 19.168-5.2891 5.2656-13.949 5.2656-19.258 0l-114.63-114.11c-5.293-5.2656-5.293-13.883 0-19.148zm-0.16797 54.621c5.293-5.2656 13.949-5.2656 19.258 0l13.055 12.988 28.246 28.113 18.617 18.527c5.2891 5.2656 5.2891 13.902 0 19.168-5.3086 5.2656-13.969 5.2656-19.258 0l-18.617-18.527-28.246-28.113-13.055-12.988c-5.2891-5.2656-5.2891-13.902 0-19.168z" fill="#cadde2" fill-rule="evenodd"/>
 <g transform="translate(-114.94 -93.863)" clip-path="url(#45bb2661a7)">
  <g clip-path="url(#7421c06740)">
   <path d="m114.94 93.863h145.12v145.08h-145.12z" fill="#cadde2"/>
  </g>
 </g>
 <g transform="translate(-114.94 -93.863)" clip-path="url(#555249f331)">
  <path d="m158.73 112.32v-4e-3m73.422 6.1328 0.0117-4e-3h-0.0273l-20.293-7.6406-0.0117-0.0117h-0.0156l-14.016-5.2734-8e-3 -4e-3 -4e-3 -0.0117-0.0195 4e-3 -10.469-3.9414 8e-3 -8e-3 -16.805 6.3242-11.777 4.4336-16.277 6.1289 21.191 7.9805 0.87891 0.32812 12.266 4.6211 10.523 3.9609 11.992-4.5156 10.797-4.0664 2.8086-1.0547 19.238-7.2461h0.0156l-8e-3 -4e-3" fill="#285292"/>
 </g>
 <path d="m49.586 34.816v9.0391 0.0195c0 3.7617 2.5273 7.168 6.6133 9.6406 4.1289 2.4961 9.8516 4.043 16.176 4.043 0.8125 0 1.6172-0.0234 2.4102-0.0742 6.125-0.38672 11.523-2.2305 15.227-4.9414 3.2188-2.3594 5.1523-5.3789 5.1523-8.668 0-4e-3 -4e-3 -0.0117-4e-3 -0.0195h4e-3v-9.0391l-22.789 8.582-22.789-8.582" fill="#285292"/>
 <g transform="translate(-114.94 -93.863)" clip-path="url(#fca07b77aa)">
  <path d="m160.12 149.09-0.0117-0.1211-0.74219-7.75-0.0312-0.33984-0.35547-3.7305h0.30078v-4.1445c0.41016-0.375 0.67188-0.91406 0.67188-1.5156 0-0.30859-0.0703-0.60156-0.19141-0.86328-0.19922-0.42578-0.53906-0.76953-0.95703-0.97656v-5.0391l-1.7891-0.67188v5.7305c-0.66016 0.33594-1.1133 1.0234-1.1133 1.8203 0 0.60157 0.26172 1.1406 0.67187 1.5156v4.1445h0.32813l-0.21485 2.2344-0.26953 2.7773-0.66413 6.8438-4e-3 0.0234-0.35937 3.7109-0.32031 3.3203c-8e-3 0.0703-0.0117 0.15234 0 0.22656 0.10546 0.91016 1.4726 1.5977 3.0508 1.5352 1.582-0.0625 2.7734-0.85157 2.6641-1.7617l-0.66406-6.9688" fill="#285292"/>
 </g>
 <g transform="translate(-114.94 -93.863)" fill="#285292">
  <g transform="translate(120.83 225.8)">
   <path d="m57.078 0h-13.016v-27.094h-25.391v27.094h-13.031v-63.203h13.031v25.609h25.391v-25.609h13.016z"/>
  </g>
 </g>
 <g transform="translate(-114.94 -93.863)" fill="#4f767d">
  <g transform="translate(197.42 225.8)">
   <path d="m29.047-23.141h-10.375v23.141h-13.031v-63.203h23.484c7.4688 0 13.227 1.668 17.281 5 4.0508 3.3242 6.0781 8.0234 6.0781 14.094 0 4.3125-0.93359 7.9141-2.7969 10.797-1.8672 2.875-4.6953 5.168-8.4844 6.875l13.672 25.828v0.60938h-13.984zm-10.375-10.547h10.5c3.2695 0 5.8008-0.82812 7.5938-2.4844 1.7891-1.6641 2.6875-3.9609 2.6875-6.8906 0-2.9766-0.85156-5.3203-2.5469-7.0312-1.6875-1.707-4.2812-2.5625-7.7812-2.5625h-10.453z"/>
  </g>
 </g>
</svg>
