<?xml version="1.0" encoding="UTF-8"?>
<svg width="492.39" height="86.141" preserveAspectRatio="xMidYMid" version="1.0" viewBox="0 0 369.29 64.605" xmlns="http://www.w3.org/2000/svg" zoomAndPan="magnify">
 <defs>
  <clipPath id="05f4da79f8">
   <path d="m6.6758 171.8h50.094v18.996h-50.094z"/>
  </clipPath>
  <clipPath id="cfe1a835c9">
   <path d="m13.645 184.26h3.3555v19.043h-3.3555z"/>
  </clipPath>
 </defs>
 <g transform="translate(-1.3203 -152.76)" clip-path="url(#05f4da79f8)">
  <path d="m15.77 177.83h-0.0039m40.996 3.4336h0.0078-0.01563l-11.332-4.2812-0.0039-8e-3 -0.01172 4e-3 -7.8242-2.957h-0.0039l-0.0039-8e-3h-0.0078l-5.8438-2.2031v-8e-3l-9.3828 3.543-6.5742 2.4844-9.0898 3.4336 11.836 4.4648 0.48828 0.1875 6.8477 2.5859 5.875 2.2188 6.6992-2.5312 6.0273-2.2734 1.5664-0.59375 10.742-4.0547h0.0078l-0.0039-4e-3" fill="#121e21"/>
 </g>
 <path d="m17.68 34.234v5.0625 0.0117c0 2.1055 1.4102 4.0117 3.6914 5.3945 2.3047 1.4023 5.5 2.2695 9.0312 2.2695 0.45703 0 0.90625-0.0156 1.3477-0.043v-4e-3c3.418-0.21484 6.4336-1.2461 8.5-2.7656 1.7969-1.3203 2.8789-3.0117 2.8789-4.8516v-0.0117-5.0625l-12.727 4.8048-12.723-4.8047" fill="#121e21"/>
 <g transform="translate(-1.3203 -152.76)" clip-path="url(#cfe1a835c9)">
  <path d="m16.539 198.42-0.0078-0.0664-0.41016-4.3398-0.01953-0.1875-0.19922-2.0898h0.16797v-2.3242c0.23047-0.20704 0.375-0.51172 0.375-0.84766 0-0.17188-0.03906-0.33594-0.10547-0.48438-0.11328-0.23828-0.30078-0.42968-0.53516-0.54687v-2.8203l-1-0.37891v3.2109c-0.36719 0.1875-0.62109 0.57422-0.62109 1.0195 0 0.33594 0.14453 0.64062 0.375 0.84766v2.3242h0.18359l-0.12109 1.25-0.14844 1.5547-0.37109 3.832v0.0156l-0.20312 2.0781-0.17969 1.8594c-0.0039 0.0391-0.0039 0.0859 0 0.125 0.0625 0.51172 0.82422 0.89453 1.707 0.85937 0.87891-0.0352 1.5469-0.47656 1.4844-0.98437l-0.37109-3.9062" fill="#121e21"/>
 </g>
 <g transform="translate(-1.3203 -152.76)" fill="#121e21">
  <g transform="translate(61.606 195)">
   <path d="m15.203 0h-3.4688v-7.2188h-6.7656v7.2188h-3.4688v-16.844h3.4688v6.8281h6.7656v-6.8281h3.4688z"/>
  </g>
  <g transform="translate(82.012 195)">
   <path d="m5.1875 0h-3.4688v-16.844h3.4688z"/>
  </g>
  <g transform="translate(92.589 195)">
   <path d="m14.828-2.125c-0.625 0.75-1.5117 1.3359-2.6562 1.75-1.1367 0.40625-2.3984 0.60938-3.7812 0.60938-1.4609 0-2.7422-0.31641-3.8438-0.95312-1.0938-0.63281-1.9453-1.5547-2.5469-2.7656-0.59375-1.2188-0.89844-2.6445-0.90625-4.2812v-1.1406c0-1.6758 0.28125-3.1289 0.84375-4.3594 0.5625-1.2266 1.375-2.1719 2.4375-2.8281 1.0703-0.65625 2.3281-0.98438 3.7656-0.98438 2 0 3.5625 0.48047 4.6875 1.4375 1.125 0.94922 1.7891 2.3359 2 4.1562h-3.375c-0.15625-0.96875-0.5-1.6719-1.0312-2.1094-0.52344-0.44531-1.2461-0.67188-2.1719-0.67188-1.1797 0-2.0781 0.44531-2.7031 1.3281-0.61719 0.88672-0.92969 2.2031-0.9375 3.9531v1.0781c0 1.7617 0.33203 3.0938 1 4 0.67578 0.89844 1.6641 1.3438 2.9688 1.3438 1.3008 0 2.2266-0.27344 2.7812-0.82812v-2.9062h-3.1562v-2.5469h6.625z"/>
  </g>
  <g transform="translate(112.39 195)">
   <path d="m15.203 0h-3.4688v-7.2188h-6.7656v7.2188h-3.4688v-16.844h3.4688v6.8281h6.7656v-6.8281h3.4688z"/>
  </g>
  <g transform="translate(132.8 195)">
   <path d="m4.9688-2.7812h7.375v2.7812h-10.844v-16.844h3.4688z"/>
  </g>
  <g transform="translate(149.3 195)">
   <path d="m11.016-3.4688h-6.0938l-1.1562 3.4688h-3.6875l6.2656-16.844h3.2188l6.3125 16.844h-3.7031zm-5.1562-2.8125h4.2188l-2.125-6.2969z"/>
  </g>
  <g transform="translate(168.91 195)">
   <path d="m15.203 0h-3.4688l-6.7656-11.078v11.078h-3.4688v-16.844h3.4688l6.7656 11.109v-11.109h3.4688z"/>
  </g>
  <g transform="translate(189.3 195)">
   <path d="m1.5 0v-16.844h5.1875c1.4766 0 2.8008 0.33594 3.9688 1 1.1641 0.66797 2.0781 1.6172 2.7344 2.8438 0.65625 1.2305 0.98438 2.6328 0.98438 4.2031v0.76562c0 1.5742-0.32422 2.9688-0.96875 4.1875-0.64844 1.2109-1.5586 2.1523-2.7344 2.8281-1.168 0.66797-2.4844 1.0078-3.9531 1.0156zm3.4688-14.031v11.25h1.6875c1.3516 0 2.3906-0.44141 3.1094-1.3281 0.71875-0.89453 1.082-2.1641 1.0938-3.8125v-0.89062c0-1.707-0.35547-3.0039-1.0625-3.8906-0.71094-0.88281-1.7461-1.3281-3.1094-1.3281z"/>
  </g>
  <g transform="translate(208.36 195)">
   <path d="m11.641-7.2969h-6.6719v4.5156h7.8281v2.7812h-11.297v-16.844h11.266v2.8125h-7.7969v4.0156h6.6719z"/>
  </g>
  <g transform="translate(225.36 195)">
   <path d="m7.7344-6.1719h-2.7656v6.1719h-3.4688v-16.844h6.2656c1.9883 0 3.5195 0.44531 4.5938 1.3281 1.082 0.88672 1.625 2.1406 1.625 3.7656 0 1.1484-0.25 2.1055-0.75 2.875-0.5 0.77344-1.2578 1.3828-2.2656 1.8281l3.6562 6.8906v0.15625h-3.7344zm-2.7656-2.7969h2.7969c0.875 0 1.5508-0.22266 2.0312-0.67188 0.47656-0.44531 0.71875-1.0547 0.71875-1.8281 0-0.80078-0.23047-1.4258-0.6875-1.875-0.44922-0.45703-1.1367-0.6875-2.0625-0.6875h-2.7969z"/>
  </g>
 </g>
 <g transform="translate(-1.3203 -152.76)" fill="#a1bfc4">
  <g transform="translate(244.14 195)">
   <path d="m8.125-6.8125h-3.9531v6.8125h-2.2344v-16.844h5.5781c1.8945 0 3.3516 0.43359 4.375 1.2969 1.0195 0.86719 1.5312 2.1211 1.5312 3.7656 0 1.0547-0.28125 1.9688-0.84375 2.75s-1.3516 1.3672-2.3594 1.75l3.9531 7.1406v0.14062h-2.3906zm-3.9531-1.8125h3.4219c1.0938 0 1.9688-0.28516 2.625-0.85938 0.65625-0.57031 0.98438-1.3359 0.98438-2.2969 0-1.0312-0.3125-1.8203-0.9375-2.375-0.625-0.5625-1.5234-0.84766-2.6875-0.85938h-3.4062z"/>
  </g>
  <g transform="translate(262.39 195)">
   <path d="m11.469-7.7812h-7.2969v5.9688h8.4844v1.8125h-10.703v-16.844h10.578v1.8281h-8.3594v5.4219h7.2969z"/>
  </g>
  <g transform="translate(279.53 195)">
   <path d="m7.5312-2.9531 4.8125-13.891h2.4219l-6.2344 16.844h-1.9688l-6.2344-16.844h2.4062z"/>
  </g>
  <g transform="translate(298.27 195)">
   <path d="m4.3438 0h-2.2344v-16.844h2.2344z"/>
  </g>
  <g transform="translate(308.38 195)">
   <path d="m11.469-7.7812h-7.2969v5.9688h8.4844v1.8125h-10.703v-16.844h10.578v1.8281h-8.3594v5.4219h7.2969z"/>
  </g>
  <g transform="translate(325.51 195)">
   <path d="m5.5938-5.3125 0.3125 2.2188 0.48438-2 3.3281-11.75h1.875l3.25 11.75 0.45312 2.0469 0.35938-2.2812 2.625-11.516h2.2188l-4.0781 16.844h-2.0156l-3.4688-12.266-0.28125-1.2969-0.26562 1.2969-3.5938 12.266h-2.0156l-4.0781-16.844h2.2188z"/>
  </g>
  <g transform="translate(350.2 195)">
   <path d="m6.9219-7.5c-1.9062-0.55078-3.2969-1.2227-4.1719-2.0156-0.86719-0.80078-1.2969-1.7891-1.2969-2.9688 0-1.3203 0.53125-2.4141 1.5938-3.2812 1.0625-0.875 2.4414-1.3125 4.1406-1.3125 1.1562 0 2.1875 0.22656 3.0938 0.67188 0.90625 0.44922 1.6016 1.0703 2.0938 1.8594 0.5 0.78125 0.75 1.6406 0.75 2.5781h-2.2344c0-1.0195-0.32422-1.8203-0.96875-2.4062-0.64844-0.58203-1.5586-0.875-2.7344-0.875-1.0938 0-1.9492 0.24609-2.5625 0.73438-0.61719 0.48047-0.92188 1.1484-0.92188 2 0 0.6875 0.28906 1.2734 0.875 1.75 0.58203 0.46875 1.5703 0.90234 2.9688 1.2969 1.3945 0.38672 2.4883 0.82031 3.2812 1.2969 0.78906 0.48047 1.375 1.0391 1.75 1.6719 0.38281 0.625 0.57812 1.3672 0.57812 2.2188 0 1.3672-0.53125 2.4609-1.5938 3.2812-1.0625 0.82422-2.4844 1.2344-4.2656 1.2344-1.1562 0-2.2344-0.21875-3.2344-0.65625-1-0.44531-1.7773-1.0547-2.3281-1.8281-0.54297-0.76953-0.8125-1.6445-0.8125-2.625h2.2344c0 1.0117 0.375 1.8125 1.125 2.4062s1.7539 0.89062 3.0156 0.89062c1.1758 0 2.0781-0.23828 2.7031-0.71875 0.625-0.47656 0.9375-1.1289 0.9375-1.9531 0-0.83203-0.29297-1.4727-0.875-1.9219-0.58594-0.44531-1.6328-0.89062-3.1406-1.3281z"/>
  </g>
 </g>
 <g fill="none" stroke="#a1bfc4">
  <path d="m195.64 63.105 172.5-0.7461" stroke-width="2.9968"/>
  <path d="m367.78 63.869v-62.639" stroke-width="3.0343"/>
  <path d="m1.5 62.73v-61.5" stroke-width="3.0066"/>
  <path d="m0.0078129 2.25 174.01-0.75" stroke-width="3.0032"/>
 </g>
</svg>
